<?xml version="1.0" encoding="utf-8"?>
<!-- Generator: Adobe Illustrator 26.0.2, SVG Export Plug-In . SVG Version: 6.00 Build 0)  -->
<svg version="1.1" id="Layer_1" xmlns="http://www.w3.org/2000/svg" xmlns:xlink="http://www.w3.org/1999/xlink" x="0px" y="0px"
	 viewBox="0 0 700 699" style="enable-background:new 0 0 700 699;" xml:space="preserve">
<style type="text/css">
	.st0{fill:#FFFFFF;}
</style>
<g>
	<path class="st0" d="M493.8,501.7c0,79.7-64.6,144.4-144.3,144.4c-79.7,0-144.3-64.6-144.3-144.4c0-79.7,64.6-144.3,144.3-144.3
		C429.2,357.4,493.8,422,493.8,501.7z"/>
	<path class="st0" d="M434.6,257c0,47-38.1,85.1-85.1,85.1S264.4,304,264.4,257s38.1-85.1,85.1-85.1S434.6,209.9,434.6,257z"/>
	<path class="st0" d="M401.3,104.7c0,28.6-23.2,51.8-51.8,51.8s-51.8-23.2-51.8-51.8s23.2-51.8,51.8-51.8S401.3,76.1,401.3,104.7z"
		/>
</g>
</svg>
